<svg xmlns="http://www.w3.org/2000/svg" viewBox="0 0 1100 620" font-family="'Segoe UI', system-ui, -apple-system, sans-serif">
  <defs>
    <filter id="shadow" x="-4%" y="-4%" width="108%" height="112%">
      <feDropShadow dx="0" dy="2" stdDeviation="3" flood-opacity="0.1"/>
    </filter>
    <marker id="arrow" viewBox="0 0 10 10" refX="9" refY="5" markerWidth="8" markerHeight="8" orient="auto-start-auto">
      <path d="M 0 0 L 10 5 L 0 10 z" fill="#64748b"/>
    </marker>
    <marker id="arrow-blue" viewBox="0 0 10 10" refX="9" refY="5" markerWidth="8" markerHeight="8" orient="auto-start-auto">
      <path d="M 0 0 L 10 5 L 0 10 z" fill="#3b82f6"/>
    </marker>
    <linearGradient id="headerGrad" x1="0%" y1="0%" x2="100%" y2="0%">
      <stop offset="0%" style="stop-color:#1e293b"/>
      <stop offset="100%" style="stop-color:#334155"/>
    </linearGradient>
  </defs>

  <!-- Background -->
  <rect width="1100" height="620" rx="12" fill="#f8fafc"/>

  <!-- Header -->
  <rect x="0" y="0" width="1100" height="56" rx="12" fill="url(#headerGrad)"/>
  <rect x="0" y="24" width="1100" height="32" fill="url(#headerGrad)"/>
  <text x="550" y="36" text-anchor="middle" fill="white" font-size="18" font-weight="600">PIC — Product Image Clustering Architecture</text>

  <!-- ===== LEFT COLUMN: Input Sources ===== -->
  <!-- Client / Upload -->
  <rect x="30" y="85" width="160" height="70" rx="10" fill="#eff6ff" stroke="#bfdbfe" stroke-width="1.5" filter="url(#shadow)"/>
  <text x="110" y="113" text-anchor="middle" fill="#1e40af" font-size="11" font-weight="600">CLIENT</text>
  <text x="110" y="130" text-anchor="middle" fill="#3b82f6" font-size="10">REST API / Upload</text>
  <text x="110" y="143" text-anchor="middle" fill="#64748b" font-size="9">Images + API Key</text>

  <!-- Google Drive Sync -->
  <rect x="30" y="175" width="160" height="60" rx="10" fill="#f0fdf4" stroke="#bbf7d0" stroke-width="1.5" filter="url(#shadow)"/>
  <text x="110" y="200" text-anchor="middle" fill="#166534" font-size="11" font-weight="600">GOOGLE DRIVE</text>
  <text x="110" y="216" text-anchor="middle" fill="#16a34a" font-size="10">Sync Pipeline</text>
  <text x="110" y="229" text-anchor="middle" fill="#64748b" font-size="9">Batch import</text>

  <!-- ===== MIDDLE-LEFT: API Layer ===== -->
  <rect x="240" y="85" width="190" height="190" rx="10" fill="#ffffff" stroke="#e2e8f0" stroke-width="1.5" filter="url(#shadow)"/>
  <rect x="240" y="85" width="190" height="32" rx="10" fill="#1e293b"/>
  <rect x="240" y="105" width="190" height="12" fill="#1e293b"/>
  <text x="335" y="105" text-anchor="middle" fill="white" font-size="12" font-weight="600">FastAPI (Railway)</text>
  <text x="335" y="105" text-anchor="middle" fill="white" font-size="12" font-weight="600">FastAPI (Railway)</text>

  <text x="260" y="140" fill="#334155" font-size="10" font-weight="500">Python 3.12 · Async</text>
  <text x="260" y="157" fill="#64748b" font-size="9.5">→ Image upload &amp; validation</text>
  <text x="260" y="172" fill="#64748b" font-size="9.5">→ API key auth (HMAC)</text>
  <text x="260" y="187" fill="#64748b" font-size="9.5">→ Rate limiting</text>
  <text x="260" y="202" fill="#64748b" font-size="9.5">→ RFC 7807 error responses</text>
  <text x="260" y="217" fill="#64748b" font-size="9.5">→ Prometheus metrics</text>
  <text x="260" y="232" fill="#64748b" font-size="9.5">→ Structured JSON logging</text>
  <text x="260" y="250" fill="#94a3b8" font-size="8.5" font-style="italic">SQLAlchemy 2.0 async</text>
  <text x="260" y="264" fill="#94a3b8" font-size="8.5" font-style="italic">Sentry error tracking</text>

  <!-- ===== MIDDLE: Database ===== -->
  <rect x="240" y="305" width="190" height="95" rx="10" fill="#faf5ff" stroke="#e9d5ff" stroke-width="1.5" filter="url(#shadow)"/>
  <text x="335" y="332" text-anchor="middle" fill="#6b21a8" font-size="12" font-weight="600">PostgreSQL + pgvector</text>
  <text x="260" y="352" fill="#7c3aed" font-size="9.5">768-dim embeddings (HNSW)</text>
  <text x="260" y="367" fill="#7c3aed" font-size="9.5">ACID transactions</text>
  <text x="260" y="382" fill="#7c3aed" font-size="9.5">Advisory locks (0x4E494301)</text>
  <text x="260" y="395" fill="#a78bfa" font-size="8.5">17 Alembic migrations</text>

  <!-- ===== MIDDLE-RIGHT: Object Storage ===== -->
  <rect x="240" y="425" width="190" height="55" rx="10" fill="#fff7ed" stroke="#fed7aa" stroke-width="1.5" filter="url(#shadow)"/>
  <text x="335" y="450" text-anchor="middle" fill="#9a3412" font-size="11" font-weight="600">Cloudflare R2</text>
  <text x="335" y="466" text-anchor="middle" fill="#ea580c" font-size="10">Image Object Storage</text>

  <!-- ===== RIGHT COLUMN: GPU Compute ===== -->
  <rect x="500" y="85" width="220" height="175" rx="10" fill="#ffffff" stroke="#e2e8f0" stroke-width="1.5" filter="url(#shadow)"/>
  <rect x="500" y="85" width="220" height="32" rx="10" fill="#7c3aed"/>
  <rect x="500" y="105" width="220" height="12" fill="#7c3aed"/>
  <text x="610" y="105" text-anchor="middle" fill="white" font-size="12" font-weight="600">Modal (Serverless GPU)</text>

  <text x="520" y="140" fill="#334155" font-size="10" font-weight="600">Embedding Worker</text>
  <text x="520" y="156" fill="#64748b" font-size="9.5">→ DINOv2 ViT (768-dim)</text>
  <text x="520" y="171" fill="#64748b" font-size="9.5">→ A100 GPU on demand</text>

  <text x="520" y="195" fill="#334155" font-size="10" font-weight="600">Clustering Pipeline</text>
  <text x="520" y="211" fill="#64748b" font-size="9.5">→ L1: HDBSCAN (near-dupes)</text>
  <text x="520" y="226" fill="#64748b" font-size="9.5">→ L2: UMAP + HDBSCAN</text>
  <text x="520" y="241" fill="#64748b" font-size="9.5">→ Atomic rollback on failure</text>
  <text x="520" y="253" fill="#94a3b8" font-size="8.5" font-style="italic">&lt; 30s cold start</text>

  <!-- ===== FAR RIGHT: AI Integration ===== -->
  <rect x="500" y="285" width="220" height="75" rx="10" fill="#fefce8" stroke="#fef08a" stroke-width="1.5" filter="url(#shadow)"/>
  <text x="610" y="310" text-anchor="middle" fill="#854d0e" font-size="11" font-weight="600">Google Gemini</text>
  <text x="520" y="330" fill="#a16207" font-size="9.5">→ Product tag generation</text>
  <text x="520" y="345" fill="#a16207" font-size="9.5">→ Shopify-ready metadata</text>
  <text x="520" y="356" fill="#ca8a04" font-size="8.5">Images → structured catalogue</text>

  <!-- ===== BOTTOM: CI/CD ===== -->
  <rect x="30" y="510" width="690" height="90" rx="10" fill="#f1f5f9" stroke="#cbd5e1" stroke-width="1.5" filter="url(#shadow)"/>
  <text x="375" y="536" text-anchor="middle" fill="#1e293b" font-size="12" font-weight="600">CI/CD &amp; Quality Gates (GitHub Actions)</text>

  <text x="60" y="558" fill="#475569" font-size="9.5">Ruff (15 rule sets)</text>
  <text x="60" y="573" fill="#94a3b8" font-size="8.5">Lint + Format</text>

  <text x="185" y="558" fill="#475569" font-size="9.5">mypy strict</text>
  <text x="185" y="573" fill="#94a3b8" font-size="8.5">Type checking</text>

  <text x="290" y="558" fill="#475569" font-size="9.5">pytest (70%+)</text>
  <text x="290" y="573" fill="#94a3b8" font-size="8.5">Unit + Integration</text>

  <text x="400" y="558" fill="#475569" font-size="9.5">Trivy + CodeQL</text>
  <text x="400" y="573" fill="#94a3b8" font-size="8.5">Security scan</text>

  <text x="520" y="558" fill="#475569" font-size="9.5">Smoke test</text>
  <text x="520" y="573" fill="#94a3b8" font-size="8.5">Auto-rollback</text>

  <text x="625" y="558" fill="#475569" font-size="9.5">Debt register</text>
  <text x="625" y="573" fill="#94a3b8" font-size="8.5">105 items tracked</text>

  <!-- ===== RIGHT SIDEBAR: Stats ===== -->
  <rect x="780" y="85" width="290" height="515" rx="10" fill="#1e293b" filter="url(#shadow)"/>
  <text x="925" y="116" text-anchor="middle" fill="#f8fafc" font-size="14" font-weight="600">By the Numbers</text>
  <line x1="800" y1="130" x2="1050" y2="130" stroke="#475569" stroke-width="0.5"/>

  <text x="925" y="162" text-anchor="middle" fill="#f59e0b" font-size="36" font-weight="700">5,200</text>
  <text x="925" y="180" text-anchor="middle" fill="#94a3b8" font-size="11">lines of production code</text>

  <text x="925" y="218" text-anchor="middle" fill="#f59e0b" font-size="36" font-weight="700">7,200+</text>
  <text x="925" y="236" text-anchor="middle" fill="#94a3b8" font-size="11">lines of test code</text>

  <text x="925" y="274" text-anchor="middle" fill="#f59e0b" font-size="36" font-weight="700">139</text>
  <text x="925" y="292" text-anchor="middle" fill="#94a3b8" font-size="11">commits</text>

  <text x="925" y="330" text-anchor="middle" fill="#f59e0b" font-size="36" font-weight="700">17</text>
  <text x="925" y="348" text-anchor="middle" fill="#94a3b8" font-size="11">database migrations</text>

  <text x="925" y="386" text-anchor="middle" fill="#f59e0b" font-size="36" font-weight="700">4</text>
  <text x="925" y="404" text-anchor="middle" fill="#94a3b8" font-size="11">CI/CD workflows</text>

  <text x="925" y="442" text-anchor="middle" fill="#f59e0b" font-size="36" font-weight="700">5</text>
  <text x="925" y="460" text-anchor="middle" fill="#94a3b8" font-size="11">quality gates per commit</text>

  <text x="925" y="498" text-anchor="middle" fill="#f59e0b" font-size="36" font-weight="700">105</text>
  <text x="925" y="516" text-anchor="middle" fill="#94a3b8" font-size="11">debt items tracked</text>

  <line x1="800" y1="536" x2="1050" y2="536" stroke="#475569" stroke-width="0.5"/>
  <text x="925" y="560" text-anchor="middle" fill="#10b981" font-size="13" font-weight="600">Built in &lt; 2 weeks</text>
  <text x="925" y="580" text-anchor="middle" fill="#6ee7b7" font-size="10">with AI-assisted development</text>

  <!-- ===== ARROWS ===== -->
  <!-- Client → API -->
  <line x1="190" y1="120" x2="235" y2="120" stroke="#64748b" stroke-width="1.5" marker-end="url(#arrow)"/>
  <!-- GDrive → API -->
  <line x1="190" y1="200" x2="220" y2="200" stroke="#64748b" stroke-width="1.5"/>
  <line x1="220" y1="200" x2="220" y2="155" stroke="#64748b" stroke-width="1.5"/>
  <line x1="220" y1="155" x2="235" y2="155" stroke="#64748b" stroke-width="1.5" marker-end="url(#arrow)"/>

  <!-- API → DB -->
  <line x1="335" y1="280" x2="335" y2="300" stroke="#64748b" stroke-width="1.5" marker-end="url(#arrow)"/>
  <!-- API → R2 -->
  <line x1="300" y1="280" x2="300" y2="420" stroke="#64748b" stroke-width="1.5" marker-end="url(#arrow)"/>

  <!-- API → Modal -->
  <line x1="435" y1="160" x2="495" y2="160" stroke="#3b82f6" stroke-width="2" stroke-dasharray="6,3" marker-end="url(#arrow-blue)"/>

  <!-- Modal → DB (write embeddings) -->
  <line x1="500" y1="245" x2="470" y2="245" stroke="#64748b" stroke-width="1.5"/>
  <line x1="470" y1="245" x2="470" y2="340" stroke="#64748b" stroke-width="1.5"/>
  <line x1="470" y1="340" x2="435" y2="340" stroke="#64748b" stroke-width="1.5" marker-end="url(#arrow)"/>

  <!-- Clusters → Gemini -->
  <line x1="610" y1="264" x2="610" y2="280" stroke="#64748b" stroke-width="1.5" marker-end="url(#arrow)"/>

  <!-- Legend -->
  <line x1="500" y1="390" x2="540" y2="390" stroke="#3b82f6" stroke-width="2" stroke-dasharray="6,3"/>
  <text x="548" y="394" fill="#64748b" font-size="9">GPU job dispatch</text>
  <line x1="500" y1="408" x2="540" y2="408" stroke="#64748b" stroke-width="1.5"/>
  <text x="548" y="412" fill="#64748b" font-size="9">Data flow</text>
</svg>
